<svg id="asics" xmlns="http://www.w3.org/2000/svg" viewBox="0 0 307.3 261.65">
  <defs>
    <style>
      .cls-1 {
        fill: #00000;
      }

      .cls-1, .cls-2, .cls-3, .cls-4 {
        fill-rule: evenodd;
      }

      .cls-2 {
        fill: #ffffff;
      }

      .cls-3 {
        fill: #9d9d9d;
      }

      .cls-4 {
        fill: #c6c5c6;
      }
    </style>
  </defs>
  <path id="fill" class="cls-1" d="M158.15,261.11h-9c-28-.26-55.7-2.57-81.08-7.17L65.92,98.61,37.6,115.16.73,65.85C20.66,49.09,43,29.27,60,23.22L109.89,5.5a46.05,46.05,0,0,1,7.52-1.64A180,180,0,0,1,152.64.53c19.39,0,26.22.67,35.6,3.22,1,.29,6.9.94,9.67,1.93l49.35,17.54c17,6.05,39.38,25.87,59.31,42.63L269.7,115.16,241.38,98.61l-2.15,155.32c-25.39,4.6-53.12,6.91-81.08,7.17Z"/>
  <path id="logo" class="cls-2" d="M181.79,56.18a.85.85,0,0,1-.86-1.16,5.7,5.7,0,0,1,4.28-3.21c1.16,0,1.07,1,.39,1.92l-.37.42c-1.35,1.32-2.6,2-3.44,2Zm27.36-5.87A4.82,4.82,0,0,0,204.32,54c-.56,2.1.56,3.69,2.6,3.69h1.37l.4-1.5h-1.37c-.76,0-1.81-.6-1.39-2.19a3,3,0,0,1,2.91-2.18h.87l.4-1.5Zm-5.94,0h1.62l-1.92,7.37h-1.62l1.92-7.37Zm-3.34,0a2.85,2.85,0,0,0-1.72.55,2.35,2.35,0,0,0-.92,1.39c-.35,1.3.67,1.93,1.49,2.38.59.32,1.1.59,1,1s-.21.55-.93.55h-2.21l-.4,1.5h2.44a2.85,2.85,0,0,0,1.76-.51,2.72,2.72,0,0,0,.93-1.54A1.69,1.69,0,0,0,201,54a4.45,4.45,0,0,0-1.21-.84c-.53-.28-1-.55-.94-.88a.65.65,0,0,1,.68-.47h2.15l.4-1.5Zm12.84,0h2.17l-.4,1.5h-2.15a.65.65,0,0,0-.68.47c-.09.33.41.6.94.88a4.77,4.77,0,0,1,1.21.84,1.72,1.72,0,0,1,.34,1.63,2.73,2.73,0,0,1-.94,1.54,2.82,2.82,0,0,1-1.75.51H209l.41-1.5h2.21c.72,0,.85-.26.93-.55s-.4-.68-1-1c-.82-.45-1.84-1.08-1.49-2.38a2.38,2.38,0,0,1,.91-1.39,2.88,2.88,0,0,1,1.73-.55Zm-20,5.87a.73.73,0,0,1-.56-.23.7.7,0,0,1-.1-.62,1.29,1.29,0,0,1,1.22-.89h1.31l-.47,1.74ZM196.43,51a1.77,1.77,0,0,1,.27,1.67l-.58,2.14-.77,2.9h-3a2.31,2.31,0,0,1-1.78-.69,1.9,1.9,0,0,1-.34-1.75A3.56,3.56,0,0,1,193.55,53H195l.11-.4a.68.68,0,0,0,0-.56.48.48,0,0,0-.32-.18l-.21,0h-2.24l.41-1.5H195a1.88,1.88,0,0,1,1.4.66Zm-9-3.5a9.84,9.84,0,0,0-5.67,2.41l.11.17c2.18-1.53,5.21-2.52,6-1,.44.79-.31,2.38-1.36,3.63.25-.55.09-1.62-1.38-1.62-2.44,0-7.24,3.24-7.24,6.54a2.16,2.16,0,0,0,2.43,2.19c4,0,9.55-6.64,9.55-10A2.21,2.21,0,0,0,187.47,47.47Z"/>
  <path id="shadow" class="cls-3" d="M151.37,22.76c-13.47,0-22.13-4.58-27.45-9.14a31.78,31.78,0,0,1-5.63-6.28c-.58-.85-1-1.56-1.26-2,0-.09-.09-.17-.13-.25a43.41,43.41,0,0,1,4.79-1.44,189.68,189.68,0,0,1,30.95-2.54h0c7.31,0,12.83.09,17.37.35,5.3.49,9.8,1.11,13.24,1.67,1.59.34,3.18.73,4.85,1.19.32.08.87.17,1.62.29l.17,0A40.63,40.63,0,0,1,180.23,14,49,49,0,0,1,151.37,22.76Z"/>
  <path id="outlines" class="cls-4" d="M158.15,261.11v-.53h-9v.53h.53v-.54h-.53c-27.93-.25-55.64-2.56-81-7.15l-.09.52h.53L66.44,97.69l-28.7,16.77L1.15,65.53l-.42.32.34.41C11,57.87,21.61,48.73,31.8,40.94s20-14.24,28.42-17.22L110.07,6a45,45,0,0,1,7.43-1.62h0c.16,0,1.16-.25,2.93-.56,1-.18,2.22-.39,3.66-.61h0l.34,0h0l.35,0h0l.33-.05h0l.31,0h.08l.29,0,.11,0,.26,0,.15,0,.23,0,.18,0,.21,0,.22,0,.18,0,.25,0,.15,0,.29,0h.12l.32,0,.1,0,.36,0h.06l.4,0h0l.43-.05h0l.44-.05h0l.41,0h.07l.38,0h.12l.34,0,.16,0,.31,0,.19,0h0l.48-.06h0l.25,0,.27,0,.21,0L134,2l.17,0,.36,0,.14,0,.41,0h.1l.45-.05h.06l.49,0h0l.52,0h0l.51,0h.06l.47,0h.11l.43,0h.15l.39,0h.31l.48,0,.5,0h.19l.44,0h.13l.38,0h.37l.42,0h.15l.47,0h.11l.52,0h.06l.58,0h0l.59,0h0l.56,0h.08l.52,0h16.93l1,0h0c4.1.1,7.47.27,10.44.54a74.82,74.82,0,0,1,9.1,1.37h0l.15,0h.15l.07,0h.08l.07,0,.07,0h.08l.07,0,.08,0h.07l.08,0h.07l.08,0h.15l.07,0,.08,0h.07l.08,0,.07,0h0l.07,0H185l.07,0h0l.07,0,.08,0h.15l.07,0h.08l.07,0,.08,0h0l.06,0,.07,0H186l.15,0,.07,0h0l.08,0,.08,0h.07l.08,0,.11,0h0l.08,0,.07,0h0l.06,0,.08,0L187,4h0l.15,0h.08l.07,0,.08,0h.08l.08,0,.07,0h.08l.08,0,.08,0H188l.07,0,.08,0c.32.08.87.17,1.62.29h.17l0,0,0,.06h0l0,.06-.05.07h0l-.05.07h0l-.06.08-.12.16-.06.09-.07.09h0l-.07.09h0l-.08.1h0l-.08.1h0l-.08.11h0l-.09.11h0l-.09.11h0l-.09.12h0l-.1.12h0l-.1.12h0l-.11.13h0l-.1.12h0l-.12.14h0l-.11.13h0L188,7h0l-.12.14h0l-.13.14h0l-.13.15h0l-.13.15h0l-.14.15h0l-.14.15h0l-.14.15h0l-.14.15h0l-.15.16h0l-.16.16h0l-.16.17h0l-.16.16h0l-.17.17h0l-.17.17h0l-.17.17h0l-.18.18h0l-.18.17h0l-.19.18h0l-.18.18h0l-.19.17h0l-.19.18h0l-.2.18h0l-.21.18h0l-.2.18h0l-.22.19h0l-.21.18h0l-.22.19h0l-.22.19h0l-.23.19h0l-.23.18h0l-.23.19h0l-.24.19h0l-.24.19h0l-.25.19h0l-.25.2h0l-.25.19h0l-.25.19h0l-.26.19-.26.19-.27.19a49,49,0,0,1-28.86,8.81c-13.47,0-22.13-4.58-27.45-9.14a31.78,31.78,0,0,1-5.63-6.28c-.58-.85-1-1.56-1.26-2h0v0h0l0,0h0v0h0v0h0c-.06-.13-.12-.24-.16-.32l-.06-.14,0,0-1,.42a29.21,29.21,0,0,0,7.55,9.47c5.48,4.71,14.42,9.41,28.14,9.41a50.09,50.09,0,0,0,30.09-9.45A40,40,0,0,0,191,4.89l-.26-.17c.94.14,2,.32,3.1.52a27.69,27.69,0,0,1,3.92.94l49.35,17.54c8.41,3,18.23,9.42,28.42,17.22,8.74,6.69,17.77,14.37,26.46,21.71L301,64l.9.67.95-1.28,3.41,2.88.34-.41-.42-.32-36.59,48.93-3.25-1.9.16-.21-.9-.68-.24.32-24.47-14.3L238.7,253.92h.53l-.09-.52c-25.35,4.59-53.06,6.9-81,7.15h-.52v.54h.53v0h0v.53c28-.26,55.75-2.57,81.18-7.18l.43-.08L241.9,99.53l27.94,16.33L307.3,65.77l-.39-.32c-10-8.38-20.54-17.54-30.77-25.36S256,25.78,247.44,22.72L198.08,5.18a35.45,35.45,0,0,0-5.56-1.25l-2.63-.42c-.74-.11-1.31-.21-1.51-.27A77.46,77.46,0,0,0,174.24.65C169.38.21,163.48,0,155.11,0h-3.66a193.76,193.76,0,0,0-23.78,1.63c-3.13.41-5.65.82-7.43,1.14s-2.82.54-2.93.56h0A46.45,46.45,0,0,0,109.71,5L59.86,22.72c-8.6,3.06-18.47,9.55-28.7,17.37S10.35,57.07.38,65.45L0,65.77l37.46,50.09L65.4,99.53l2.14,154.84.43.08c25.43,4.61,53.19,6.92,81.17,7.18v-.53h-.53v.54h10.06v-.53Zm80.74-165.2-1.06-.1v-.17c0-.12,0-.3,0-.54,0-4.63-2.09-31.95-47.87-79.54l.76-.74c45.91,47.71,48.18,75.31,48.18,80.28,0,.52,0,.79,0,.81Zm-171.33-.1-1.06.1s0-.29,0-.81c0-5,2.27-32.55,48.13-80.23A30.14,30.14,0,0,1,110,6.59l1-.32,0,.06.07.19c.06.16.15.41.29.73a26.17,26.17,0,0,0,1.27,2.65A35.36,35.36,0,0,0,118.71,18c5.89,5.87,15.79,11.76,32,11.76h.43c17-.11,27.86-5.75,34.53-11.51a35,35,0,0,0,9.43-12.33l0-.06,1,.38A35.15,35.15,0,0,1,187,18.44c-6.78,6.11-18,12.23-35.87,12.34h-.44c-16.5,0-26.72-6-32.78-12.06a37.63,37.63,0,0,1-2.69-3C69.63,63.21,67.54,90.47,67.54,95.1c0,.36,0,.59,0,.67v0ZM189.89,4.59Zm110,60.84.9.67-1.07,1.45-.91-.67,1.08-1.45Zm-2.15,2.89.91.67-1.08,1.45-.9-.67,1.07-1.45Zm-2.14,2.89.9.67-1.07,1.45-.91-.67,1.08-1.45Zm-2.15,2.89.9.67-1.07,1.45-.9-.67,1.07-1.45ZM291.31,77l.91.67-1.07,1.45-.91-.67L291.31,77Zm-2.14,2.89.9.67L289,82l-.9-.67,1.07-1.45ZM287,82.77l.91.67-1.08,1.45-.9-.67L287,82.77Zm-2.14,2.89.9.67-1.07,1.45-.91-.67,1.08-1.45Zm-2.15,2.89.9.67-1.07,1.45-.9-.67,1.07-1.45Zm-2.14,2.89.9.67-1.07,1.45-.91-.67,1.08-1.45Zm-2.15,2.89.9.67-1.07,1.45-.9-.67,1.07-1.45Zm-2.15,2.89.91.67-1.08,1.45-.9-.67,1.07-1.45Zm-2.14,2.89.9.67L274,102.23l-.9-.67,1.07-1.45ZM272,103l.91.67-1.08,1.45-.9-.67L272,103Zm-2.14,2.89.9.67L269.69,108l-.91-.67,1.08-1.45Zm-2.15,2.89.9.67-1.07,1.45-.9-.67,1.07-1.45ZM69.33,248.68l.17-1.11,1.79.27L71.12,249l-1.79-.27Zm3.58.53.16-1.11,1.79.25-.16,1.11-1.79-.25Zm3.58.5.15-1.11,1.79.24L78.28,250l-1.79-.24Zm3.58.48.14-1.11,1.79.23-.14,1.12-1.79-.24Zm3.57.47.15-1.12,1.78.23-.14,1.12-1.79-.23Zm3.58.45.14-1.12,1.79.22L89,251.33l-1.79-.22Zm3.58.44.13-1.12,1.79.21-.13,1.12-1.79-.21Zm3.58.42.13-1.12,1.79.2-.13,1.12-1.79-.2Zm3.58.4.13-1.11,1.79.19-.12,1.12-1.8-.2Zm3.59.39.12-1.11,1.79.19-.12,1.11-1.79-.19Zm3.58.38.12-1.12,1.79.18-.11,1.12-1.8-.18Zm3.59.36.11-1.12,1.79.17-.11,1.12-1.79-.17Zm3.59.34.1-1.12,1.79.16-.1,1.12-1.79-.16Zm3.59.32L116,253l1.79.16-.1,1.12-1.79-.16Zm3.59.31.09-1.12,1.8.14-.09,1.12-1.8-.14Zm3.59.28.09-1.12,1.79.14-.08,1.12-1.8-.14Zm3.59.27.08-1.13,1.79.13-.07,1.12-1.8-.12Zm3.59.24.07-1.12,1.8.11-.07,1.12-1.8-.11Zm3.6.22.07-1.12,1.79.1-.06,1.12-1.8-.1Zm3.61.19.06-1.12,1.8.09-.05,1.12-1.81-.09Zm3.61.17,0-1.12,1.79.07,0,1.12-1.8-.07Zm3.6.14,0-1.13,1.8.06,0,1.12-1.8,0Zm3.61.1,0-1.12,1.79,0,0,1.12-1.8,0Zm3.6.08,0-1.13,1.8,0v1.13l-1.81,0Zm3.61,0v-1.13h1.8v1.13H155.5Zm3.61,0v-1.12l1.79,0,0,1.12-1.8,0Zm3.6-.05,0-1.13,1.8,0,0,1.12-1.8.05Zm3.6-.1,0-1.13,1.8-.06,0,1.12-1.8.07Zm3.61-.14,0-1.12,1.8-.09.05,1.13-1.8.08Zm3.61-.18-.06-1.12,1.79-.1.07,1.12-1.8.1Zm3.6-.21-.07-1.12,1.79-.12.08,1.13-1.8.11Zm3.6-.24-.08-1.12,1.79-.13.08,1.12-1.79.13Zm3.59-.27-.09-1.12,1.8-.15.09,1.13-1.8.14Zm3.6-.3-.1-1.12,1.79-.16.1,1.12-1.79.16Zm3.59-.32-.11-1.13,1.79-.17.11,1.12-1.79.18Zm3.59-.36-.12-1.12,1.79-.18.12,1.12-1.79.18Zm3.58-.38-.12-1.11,1.79-.2.12,1.12-1.79.19Zm3.58-.4-.12-1.11,1.78-.21.14,1.11-1.8.21Zm3.58-.42-.13-1.12,1.79-.22.13,1.12-1.79.22Zm3.58-.45-.14-1.11,1.78-.23.15,1.11-1.79.23Zm3.58-.46-.15-1.12,1.78-.24.15,1.11-1.78.25Zm3.57-.49-.16-1.12,1.79-.25.16,1.11-1.79.26Zm3.57-.51-.16-1.12,1.78-.26.16,1.11-1.78.27Zm3.57-.54-.17-1.11,1.78-.27.17,1.11-1.78.27Zm3.56-.55-.17-1.11,1.77-.29.18,1.11-1.78.29Zm3.57-.58-.19-1.11,1.78-.29.19,1.11-1.78.29Zm3.56-.6-.2-1.11,1.78-.31.2,1.11-1.78.31ZM238,248l-.21-1.1.31-.06.21,1.11-.31,0ZM5.21,63.21l.9-.67L7.19,64l-.91.67L5.21,63.21ZM7.36,66.1l.9-.67,1.07,1.45-.9.67L7.36,66.1ZM9.5,69l.91-.67,1.07,1.45-.91.67L9.5,69Zm2.15,2.89.9-.67,1.07,1.45-.9.67-1.07-1.45Zm2.14,2.89.91-.67,1.07,1.45-.9.67-1.08-1.45Zm2.15,2.89.9-.67,1.08,1.45-.91.67-1.07-1.45Zm2.15,2.89.9-.67,1.07,1.45-.9.67-1.07-1.45Zm2.14,2.89.9-.67,1.08,1.45-.91.67-1.07-1.45Zm2.15,2.89.9-.67,1.07,1.45-.9.67-1.07-1.45Zm2.14,2.89.91-.67L26.5,90l-.9.67-1.08-1.45Zm2.15,2.89.9-.67,1.07,1.45-.9.67-1.07-1.45ZM28.81,95l.91-.67,1.07,1.45-.9.67L28.81,95ZM31,97.89l.9-.67,1.08,1.45-.91.67L31,97.89Zm2.15,2.89.9-.67,1.07,1.45-.9.67-1.07-1.45Zm2.14,2.89.9-.67,1.08,1.45-.91.67-1.07-1.45Zm2.15,2.89.9-.67,1.07,1.45-.9.67-1.07-1.45Zm2.14,2.89.91-.67,1.07,1.45-.9.67Z"/>
</svg>
