<?xml version="1.0" encoding="utf-8"?>
<!-- Generator: Adobe Illustrator 24.1.1, SVG Export Plug-In . SVG Version: 6.00 Build 0)  -->
<svg version="1.1" id="logo" xmlns="http://www.w3.org/2000/svg" xmlns:xlink="http://www.w3.org/1999/xlink" x="0px" y="0px"
	 viewBox="0 0 277.77 79.59" style="enable-background:new 0 0 277.77 79.59;" xml:space="preserve">
<style type="text/css">
	.st0{fill-rule:evenodd;clip-rule:evenodd;fill:#FFED00;}
	.st1{fill-rule:evenodd;clip-rule:evenodd;fill:#009EE3;}
	.st2{fill-rule:evenodd;clip-rule:evenodd;fill:#E5007D;}
	.st3{fill-rule:evenodd;clip-rule:evenodd;fill:#25190B;}
</style>
<path id="yellow" class="st0" d="M250.47,2.44c22.69,19.08-18.48,41.87-39.12,44c3.04,4.88,15.29,16.83,49.21,14.99
	C283.89,40.56,286.24,14.15,250.47,2.44z"/>
<path id="cyan" class="st1" d="M209.25,17.68c-4.63-0.91-47.49,22.75-25.48,48.74c16.03,18.93,53.11,13.6,72.46,0.15
	c-17.1,0.27-38.98-0.49-50.16-16.3C197.06,37.53,209.25,17.68,209.25,17.68z"/>
<path id="magenta" class="st2" d="M176.97,37.39c17.54-26.39,59.9-39.3,72.66-15.82c4.35-4.35,4.09-16.3-5.2-19.7
	C222.3-6.21,180.95,16.44,176.97,37.39z"/>
<g id="text">
	<path class="st3" d="M156.63,39.68c-1.69-1.43-3.72-2.66-6.11-3.69c-2.39-1.03-5.05-1.94-7.98-2.75c-2.35-0.66-4.4-1.28-6.16-1.87
		c-1.76-0.59-3.27-1.23-4.51-1.93c-1.25-0.7-2.18-1.5-2.81-2.42c-0.62-0.92-0.94-2-0.94-3.25c0-3.16,1.1-5.69,3.3-7.6
		c2.2-1.91,5.5-2.86,9.91-2.86c2.2,0,4.33,0.29,6.39,0.88c2.05,0.59,3.91,1.3,5.56,2.15c1.65,0.84,3.03,1.71,4.13,2.59
		c1.1,0.88,1.8,1.58,2.09,2.09l9.36-12.33c-2.79-2.35-6.22-4.39-10.29-6.11C154.48,0.86,149.84,0,144.63,0
		c-4.33,0-8.49,0.64-12.49,1.93c-4,1.28-7.52,3.17-10.57,5.67c-3.05,2.5-5.49,5.52-7.32,9.08c-1.83,3.56-2.75,7.61-2.75,12.16
		c0,4.48,1.43,7.98,4.29,10.51c2.86,2.53,7.05,4.64,12.55,6.33c2.42,0.73,4.64,1.45,6.66,2.15c2.02,0.7,3.76,1.45,5.23,2.26
		c1.47,0.81,2.62,1.72,3.47,2.75c0.84,1.03,1.27,2.24,1.27,3.63c0,2.86-1.08,5.16-3.25,6.88c-2.16,1.72-5.45,2.59-9.85,2.59
		c-2.86,0-5.6-0.37-8.2-1.1c-2.6-0.73-4.92-1.63-6.93-2.7c-2.02-1.06-3.71-2.13-5.06-3.19c-1.36-1.06-2.22-1.93-2.59-2.59
		l-9.47,13.1c3.67,3.23,8.05,5.72,13.15,7.49c5.1,1.76,10.4,2.64,15.91,2.64c4.18,0,8.27-0.51,12.27-1.54
		c4-1.03,7.54-2.66,10.62-4.9c3.08-2.24,5.58-5.12,7.49-8.64c1.91-3.52,2.86-7.74,2.86-12.66c0-2.72-0.46-5.06-1.38-7.05
		C159.62,42.82,158.32,41.12,156.63,39.68z"/>
	<path class="st3" d="M96.05,5.5c-1.1-1.47-2.48-2.66-4.13-3.58c-1.65-0.92-3.58-1.38-5.78-1.38H46.08L29.45,78.71h35.89
		c3.74,0,7.38-0.53,10.9-1.6c3.52-1.06,6.64-2.64,9.36-4.73c2.72-2.09,4.88-4.66,6.5-7.71c1.61-3.05,2.42-6.55,2.42-10.51
		c0-3.89-0.88-7.17-2.64-9.85c-1.76-2.68-4.29-4.57-7.6-5.67c2.28-0.95,4.35-2.22,6.22-3.8c1.87-1.58,3.47-3.36,4.79-5.34
		c1.32-1.98,2.33-4.07,3.03-6.27c0.7-2.2,1.05-4.44,1.05-6.72c0-2.05-0.28-4.04-0.83-5.94C97.98,8.66,97.15,6.97,96.05,5.5z
		 M79.37,58.18c-0.66,1.5-1.52,2.83-2.59,3.96c-1.06,1.14-2.29,2.04-3.69,2.7c-1.39,0.66-2.79,0.99-4.18,0.99H48.11l4.29-20.59
		h21.58c1.98,0,3.54,0.79,4.68,2.37c1.14,1.58,1.71,3.5,1.71,5.78C80.36,55.08,80.03,56.67,79.37,58.18z M83.5,26.03
		c-0.62,1.5-1.45,2.79-2.48,3.85c-1.03,1.06-2.18,1.89-3.47,2.48c-1.28,0.59-2.59,0.88-3.91,0.88h-18.6l4.18-19.7h19.15
		c1.83,0,3.3,0.68,4.4,2.04c1.1,1.36,1.65,3.17,1.65,5.45C84.44,22.86,84.13,24.53,83.5,26.03z"/>
	<polygon class="st3" points="16.62,0.66 0,78.71 16.45,78.71 33.08,0.66 	"/>
</g>
</svg>
