<svg id="nike" xmlns="http://www.w3.org/2000/svg" viewBox="0 0 221.93 253.99">
  <defs>
    <style>
      .cls-1 {
        fill: #000000;
      }

      .cls-1, .cls-2, .cls-3, .cls-4 {
        fill-rule: evenodd;
      }

      .cls-2 {
        fill: #ffffff;
      }

      .cls-3 {
        fill: #9d9d9d;
      }

      .cls-4 {
        fill: #c6c5c6;
      }
    </style>
  </defs>
  <path id="fill" class="cls-1" d="M196.23,29c-4.28-7.61-21.41-14.74-21.41-14.74l-30-13.8s-8.05,5.94-36.27,6.18C80.36,6.43,77.07.49,77.07.49l-30,13.8S30,21.42,25.7,29,.49,76.12.49,76.12l30.44,20,7.61-8.56s11.66,46.61,11.66,56.6-6,94.66-6,94.66,6.66,14.74,66.59,14.74h.24c59.94,0,66.6-14.74,66.6-14.74s-6-84.67-6-94.66,11.66-56.6,11.66-56.6L191,96.1l30.45-20S200.51,36.64,196.23,29Z"/>
  <path id="logo" class="cls-2" d="M157.14,45.41l-11.06,4.5c-1.19.48-3.06,1-3.81-.23a2.7,2.7,0,0,1,.51-2.73,14.23,14.23,0,0,1,1.48-1.76c-.3.47-1.14,2-.08,2.82a2.57,2.57,0,0,0,2.06.13Z"/>
  <path id="shadow" class="cls-3" d="M110.87,29.41C80.49,29.41,76.37.16,76.37.16s6,6.75,31.87,6.75c23.38,0,34.82-5.52,36.81-6.58l.27.13C144.78,3.54,139.43,29.41,110.87,29.41Z"/>
  <path id="outlines" class="cls-4" d="M38.36,88.34l.32,1.31c1.12,4.53,3.9,16,6.41,27.4,1.26,5.71,2.44,11.4,3.31,16.22a74.85,74.85,0,0,1,1.42,10.87c0,5-1.48,28.64-3,51.05-.74,11.21-1.49,22.1-2,30.2-.3,4.28-.42,6-.68,9.72l-.25,3.66v.1l0,.08c0,.1,1.8,3.86,11,7.57,24.75,10,87.31,10,112.06,0,9.23-3.71,11-7.47,11-7.57l0-.08v-.1s-.09-1.32-.26-3.66c-1.08-15.61-2.22-32.35-3.27-48.35-1.28-19.6-2.42-38.28-2.41-42.62a87.61,87.61,0,0,1,1.81-13c1.64-8.65,4.09-19.53,6.14-28.25,1-4.36,1.95-8.18,2.61-10.91l.91-3.68,7.35,8.28,31-20.34c-8.38-15.77-16.63-31.86-25.38-47.4-2.22-3.94-7.61-7.62-12.44-10.37-3.45-2-6.63-3.43-8.17-4.12l-2.61-1.18L144.81.06l-.18.13h0c-.42.29-8.74,5.86-36,6.1v0C94.5,6.18,86.66,4.63,82.37,3.14a15.34,15.34,0,0,1-4.12-2,3,3,0,0,1-1-1.12L48.92,13c-1.54.71-2,.89-3.31,1.5-1.65.74-4.6,2.14-7.79,4C33,21.23,27.6,24.91,25.37,28.85,16.63,44.39,8.38,60.48,0,76.25L31,96.59l7.36-8.25ZM195.9,29.21c2.13,3.8,8.44,15.58,14.21,26.4L217.77,70l2.43,4.58c.34.65.6,1.12.75,1.41L191.06,95.61l-2.62-2.94.56-.38-.4-.59-.63.43-.85-1,.45-.31-.4-.59-.53.37-3.45-3.88-.17.69S180.11,99.1,177.19,112c-1.46,6.45-2.91,13.22-4,19a88.89,88.89,0,0,0-1.82,13.13c0,5,1.48,28.68,3,51.1,1.41,21.36,2.83,41.62,3,43.47-.29.54-2.42,3.91-11,7.28-24.62,9.68-86.56,9.7-111.07-.17a29.92,29.92,0,0,1-8.73-5A10.56,10.56,0,0,1,45,239.21a2.64,2.64,0,0,1-.29-.44l0-.05c1-14.36,2-29,3-43.48,1.49-22.42,3-46.07,3-51.1A88.89,88.89,0,0,0,48.75,131c-.9-4.75-2-10.17-3.24-15.54H57.23v-1H45.29q-3.07-13.78-6.5-27.5A10.35,10.35,0,0,0,44,82.08a37.14,37.14,0,0,0,3.72-11.56A11.15,11.15,0,0,1,49.83,74C52.31,79.67,54.28,90,55.6,98.79c.66,4.41,1.16,8.47,1.5,11.42.17,1.48.29,2.68.38,3.51.05.5.09.86.11,1.07a2.55,2.55,0,0,1,0,.38V246.61h1v-4.49l.31.1.21-.68-.52-.17V240.3l.31.1.22-.68-.53-.17V114.92s-.91-9.69-2.63-20.15A149.41,149.41,0,0,0,52.8,79.58a45.31,45.31,0,0,0-2-6,12,12,0,0,0-2.42-3.86l-.65.7c.2-1.15.39-2.33.55-3.54a151.81,151.81,0,0,0,1.11-19.68,327.15,327.15,0,0,0-1.83-32.72L71.28,3.57a54.54,54.54,0,0,0,8,15.92c5.9,8.07,15.67,16.2,30.85,16.23h.09c15.54,0,25.39-7.67,31.41-15.54a54.5,54.5,0,0,0,6.46-11.06c.68-1.56,1.2-2.91,1.57-3.92.19-.51.34-.93.46-1.26s.15-.41.2-.53L174,14.3a325.68,325.68,0,0,0-1.85,32.93c0,9,.51,18.17,2.1,25.5a33.45,33.45,0,0,0,3.28,9.35c1.42,2.48,2.88,4.16,5.16,4.88l.28-1c-1.95-.61-3.22-2-4.56-4.39-2-3.52-3.35-8.77-4.16-14.8a153.14,153.14,0,0,1-1.09-19.55c0-8.67.49-17.13,1-23.43.24-3.14.49-5.75.67-7.56.06-.59.11-1.09.16-1.5l.47.21a94.33,94.33,0,0,1,10.14,5.24c4.26,2.57,8.55,5.81,10.35,9ZM1,76l.76-1.4,1.08-2,.62.43.41-.59-.7-.47.6-1.13,1.12.76.4-.59-1.18-.81c6.06-11.4,18.73-35.23,22-40.95,2-3.67,7.37-7.37,12.17-10.08,2.39-1.36,4.66-2.49,6.32-3.27l2-.91h0c0,.37.08.8.13,1.3.55,5.45,1.66,18,1.66,31,0,8.93-.52,18.08-2.09,25.28a32.57,32.57,0,0,1-3.16,9.07c-1.35,2.35-3,3.91-4.92,4.52l.3,1-7.59,8.54L1,76ZM144.86.93,149.4,3c-.07.15-.14.35-.24.61A56.19,56.19,0,0,1,139.67,21c-6,7.17-15.21,13.7-29.45,13.71h-.09c-14.79,0-24.23-7.9-30-15.81A54.19,54.19,0,0,1,74,8c-.63-1.48-1.07-2.72-1.36-3.58-.14-.43-.24-.77-.31-1s-.07-.24-.09-.29L77,1c.48.55,1.84,1.7,5.13,2.85,4.41,1.53,12.32,3.08,26.46,3.2h0c25.79-.22,34.81-5.2,36.27-6.12ZM45.53,235.28l.5-.51c.28.27.61.57,1,.88l-.45.56c-.41-.33-.75-.64-1-.93ZM47.69,237l.41-.58c.34.24.71.49,1.12.74l-.38.61c-.42-.26-.8-.52-1.15-.77ZM50,238.51l.35-.62,1.2.64-.33.63c-.43-.21-.83-.43-1.22-.65Zm2.47,1.26.3-.65c.39.18.81.37,1.24.55l-.28.66-1.26-.56ZM55,240.85l.27-.67c.4.17.83.33,1.27.49l-.25.67L55,240.85Zm5.21,1.78.21-.69,1.31.38-.19.68-1.33-.37Zm2.65.73.18-.69,1.33.33-.17.69-1.34-.33Zm2.68.65.15-.7,1.34.3-.15.7-1.34-.3Zm2.68.58.14-.7,1.34.26-.13.7-1.35-.26Zm2.7.51.13-.7,1.34.23-.11.7L71,245.1Zm2.71.45.11-.7,1.35.2-.1.71-1.36-.21Zm2.72.41.1-.71,1.35.18-.09.71L76.38,246Zm2.72.35.09-.71,1.35.16-.08.71-1.36-.16Zm2.73.31.07-.71,1.36.14-.07.71-1.36-.14Zm2.73.27.06-.71c.45,0,.91.09,1.37.12l-.06.72-1.37-.13Zm2.73.24.06-.71,1.36.1,0,.71-1.37-.1Zm2.74.2,0-.71,1.36.09,0,.71L90,247.33Zm2.74.17,0-.71,1.37.07,0,.72-1.37-.08Zm2.74.14,0-.71,1.37.06,0,.71-1.37-.06Zm2.74.12,0-.72,1.36.05,0,.71-1.37,0Zm2.74.08,0-.71,1.37,0,0,.72-1.37,0Zm2.74.07,0-.72,1.37,0v.71l-1.38,0Zm2.75,0v-.72l1.37,0V248Zm2.74,0v-.72h1.37V248h-1.37Zm2.74,0v-.71h1.37V248Zm2.75,0v-.71l1.37,0v.71l-1.37,0Zm2.74,0v-.71l1.36,0,0,.71-1.37,0Zm2.74-.07,0-.71,1.37,0,0,.71-1.38,0Zm2.75-.09,0-.71,1.37-.06,0,.72-1.37.05Zm2.74-.12,0-.71,1.37-.07,0,.72-1.37.06Zm2.74-.14,0-.71,1.36-.09,0,.72-1.37.08Zm2.74-.17,0-.72,1.36-.09.05.71-1.36.1Zm2.73-.21-.06-.71,1.37-.12.06.72-1.37.11Zm2.74-.24-.07-.71,1.36-.13.07.71-1.36.13Zm2.73-.27-.08-.71,1.36-.15.08.71-1.36.15Zm2.72-.32-.08-.71,1.35-.17.1.71-1.37.17Zm2.73-.35-.1-.71,1.35-.19.11.7-1.36.2Zm2.71-.41-.11-.7,1.35-.22.12.7-1.36.22Zm2.71-.45-.12-.7,1.34-.25.13.7-1.35.25Zm2.7-.51-.14-.7,1.34-.28.15.7-1.35.28Zm2.69-.58-.16-.69,1.33-.31.17.69-1.34.31Zm2.67-.64-.18-.69,1.32-.35.19.69-1.33.35Zm2.65-.73-.2-.68c.45-.13.89-.26,1.31-.4l.21.69-1.32.39Zm2.76-.86v4.87h-1V115.05a1.77,1.77,0,0,1,0-.23c.09-.9.77-7.91,2-16.18,1.33-8.87,3.28-19.16,5.84-25A12.16,12.16,0,0,1,173,69.75l.7.74c-1.29,1.2-2.59,4.06-3.71,7.74A113.23,113.23,0,0,0,167,91c-1.68,9.17-2.74,18.6-3.13,22.34-.09.81-.14,1.36-.16,1.57a1.09,1.09,0,0,0,0,.18V239.17l.93-.33.24.68-1.17.41V241l.93-.33.24.68c-.38.14-.77.27-1.17.4Zm2.46-.88-.25-.67c.44-.17.86-.33,1.26-.5l.27.66-1.28.51Zm2.55-1.06-.29-.65,1.23-.57.31.64c-.4.19-.81.39-1.25.58Zm2.48-1.21-.33-.63c.41-.22.81-.44,1.17-.66l.37.61c-.38.23-.78.45-1.21.68Zm2.38-1.41-.39-.6c.4-.26.77-.52,1.1-.77l.43.57c-.35.26-.72.52-1.14.8Zm2.22-1.68-.47-.54a12.3,12.3,0,0,0,1-.92l.53.48a13.84,13.84,0,0,1-1,1Zm-130.26-2L46,233c.28.27.61.57,1,.88l-.45.56c-.41-.33-.75-.64-1-.93Zm2.16,1.77.41-.59c.34.24.71.49,1.12.75l-.38.6c-.42-.26-.8-.51-1.15-.76ZM50,236.7l.35-.63,1.2.64-.32.63c-.44-.21-.84-.43-1.23-.64ZM52.5,238l.3-.65c.39.18.81.37,1.24.55l-.28.66L52.5,238ZM55,239l.27-.66,1.27.48-.25.67L55,239Zm5.21,1.78.21-.69,1.31.38-.19.68-1.33-.37Zm2.66.73.17-.69,1.33.33-.17.7-1.33-.34Zm2.67.65.16-.69,1.33.29-.15.7-1.34-.3Zm2.68.58.14-.7,1.34.26-.13.7-1.35-.26Zm2.7.51.13-.7,1.34.23-.11.7L71,243.28Zm2.71.45.11-.7,1.35.21-.1.7-1.36-.21Zm2.72.41.1-.71,1.35.18-.09.71-1.36-.18Zm2.72.35.09-.71,1.35.16-.08.71-1.36-.16Zm2.73.31.07-.71,1.36.14-.07.71-1.36-.14Zm2.73.27.06-.71,1.37.13-.06.71-1.37-.13Zm2.73.24.06-.71,1.36.1,0,.71-1.37-.1Zm2.74.2,0-.71,1.36.09,0,.71L90,245.51Zm2.74.17,0-.71,1.37.07,0,.72-1.37-.08Zm2.74.14,0-.71,1.37.06,0,.71-1.37-.06Zm2.74.12,0-.72,1.36.05,0,.71-1.37,0ZM101,246l0-.71,1.37,0,0,.71L101,246Zm2.75.07v-.72l1.37,0v.71l-1.37,0Zm2.74,0v-.72l1.37,0v.71Zm2.74,0v-.72h1.36v.71h-1.37Zm2.75,0v-.72h1.37v.72Zm2.74,0v-.71l1.37,0v.71l-1.37,0Zm2.74,0v-.71l1.37,0v.71l-1.37,0Zm2.74-.07,0-.71,1.37,0,0,.71-1.38,0Zm2.75-.09,0-.71,1.37-.06,0,.72-1.37,0Zm2.74-.12,0-.71L127,245l0,.72-1.37.06Zm2.74-.14,0-.71,1.36-.09,0,.72-1.37.08Zm2.74-.17,0-.72,1.36-.09.05.71-1.36.1Zm2.73-.21-.06-.71,1.37-.11.06.71-1.37.11Zm2.74-.24-.07-.71,1.36-.13.07.71-1.36.13Zm2.73-.27-.08-.71,1.36-.15.08.71-1.36.15Zm2.72-.32-.08-.7,1.35-.18.1.71-1.37.17Zm2.73-.35-.1-.71,1.35-.19.11.7-1.36.2Zm2.71-.41-.11-.7,1.35-.22.12.7-1.36.22Zm2.71-.45-.12-.7,1.34-.25.13.7-1.35.25Zm2.7-.51-.14-.7,1.34-.28.15.7-1.35.28Zm2.69-.58-.16-.69,1.33-.31.17.69-1.34.31Zm2.67-.64-.18-.69,1.32-.35.19.69-1.33.35Zm2.65-.73-.2-.68,1.31-.39.21.68-1.32.39Zm5.22-1.74-.25-.67c.44-.16.86-.33,1.26-.5l.27.66-1.28.51Zm2.55-1.06-.29-.65,1.23-.57.31.64c-.4.19-.81.39-1.25.58Zm2.48-1.21-.33-.63c.41-.22.81-.44,1.17-.66l.37.61c-.38.23-.78.45-1.21.68Zm2.38-1.41-.39-.6c.4-.26.77-.52,1.1-.77l.43.57c-.34.26-.72.52-1.14.8Zm2.22-1.68-.47-.53a12.22,12.22,0,0,0,1-.93l.53.48a10.67,10.67,0,0,1-1,1ZM190.13,91.52l-.4-.59,1.13-.77.4.59-1.13.77ZM192.4,90l-.41-.59,1.14-.78.4.59L192.4,90Zm2.26-1.55-.4-.59,1.13-.77.4.59-1.13.77Zm2.27-1.54-.41-.59,1.14-.77.4.59-1.13.77Zm2.26-1.55-.4-.59,1.13-.77.4.59-1.13.77Zm2.26-1.54-.4-.59,1.13-.77.41.59-1.14.77Zm2.27-1.55-.4-.58,1.13-.78.4.59-1.13.77ZM206,80.71l-.4-.59,1.13-.77.41.59-1.14.77Zm2.27-1.54-.4-.59,1.13-.77.4.58-1.13.78Zm2.26-1.55-.4-.59,1.13-.77.41.59-1.14.77Zm2.27-1.54-.4-.59,1.13-.77.4.59-1.13.77ZM215,74.53l-.4-.59,1.13-.77.4.59-1.13.77ZM217.31,73l-.41-.59,1.14-.77.4.59-1.13.77ZM188.7,90.09l-.4-.59,1.13-.77.41.59-1.14.77ZM191,88.55l-.4-.59,1.13-.77.4.59-1.13.77ZM193.23,87l-.4-.59,1.13-.77.41.59-1.14.77Zm2.27-1.54-.4-.59,1.13-.77.4.59-1.13.77Zm2.26-1.54-.4-.59,1.13-.78.41.59-1.14.78ZM200,82.37l-.4-.59,1.13-.77.4.59-1.13.77Zm2.26-1.54-.4-.59,1.13-.77.4.59-1.13.77Zm2.27-1.55-.41-.59,1.14-.77.4.59-1.13.77Zm2.26-1.54-.4-.59,1.13-.77.4.59-1.13.77Zm2.27-1.54-.41-.59,1.14-.78.4.59-1.13.78Zm2.26-1.55-.4-.59,1.13-.77.4.59-1.13.77Zm2.27-1.54-.41-.59,1.13-.77.41.59-1.13.77Zm2.26-1.55-.4-.59,1.13-.77.4.59-1.13.77ZM33.27,92.47l-.46.55-1.07-.73.4-.59,1.13.77ZM31,90.93l-.4.59-1.13-.77.4-.59,1.13.77Zm-2.26-1.54-.41.59-1.13-.78.4-.59,1.14.78Zm-2.27-1.55-.4.59L25,87.66l.4-.59,1.13.77ZM24.22,86.3l-.41.59-1.13-.77.4-.59,1.14.77ZM22,84.75l-.4.59-1.13-.77.4-.59,1.13.77Zm-2.26-1.54-.4.59L18.15,83l.41-.59,1.13.77Zm-2.27-1.54-.4.58-1.13-.77.4-.59,1.13.78Zm-2.26-1.55-.4.59-1.14-.77.41-.59,1.13.77Zm-2.27-1.54-.4.59-1.13-.78.4-.58,1.13.77ZM10.63,77l-.4.59-1.14-.77.41-.59,1.13.77ZM8.36,75.49l-.4.59-1.13-.77.4-.59,1.13.77ZM6.1,73.94l-.4.59-1.14-.77L5,73.17l1.13.77ZM34.6,91l-.48.52-.95-.64.4-.59,1,.71ZM32.44,89.5l-.4.59-1.14-.77.41-.59,1.13.77ZM30.17,88l-.4.59-1.13-.77.4-.59,1.13.77Zm-2.26-1.55-.4.59-1.14-.77.41-.59,1.13.77Zm-2.27-1.54-.4.59-1.13-.77.4-.59,1.13.77Zm-2.26-1.54-.4.59-1.13-.78.4-.59,1.13.78Zm-2.27-1.55-.4.59-1.13-.77L20,81l1.13.77Zm-2.26-1.54-.4.59-1.14-.77.41-.59,1.13.77Zm-2.27-1.55-.4.59-1.13-.77.4-.59,1.13.77Zm-2.26-1.54-.4.59L12.79,77l.4-.59,1.13.77Zm-2.26-1.54-.41.59-1.13-.78.4-.59,1.14.78ZM9.79,74.06l-.4.59-1.13-.77.4-.59,1.13.77ZM7.53,72.52l-.41.59L6,72.34l.4-.59,1.14.77Zm156.55,43v-1h12.29v1Z"/>
</svg>
