<?xml version="1.0" encoding="utf-8"?>
<svg version="1.1" id="Layer_1" xmlns="http://www.w3.org/2000/svg" xmlns:xlink="http://www.w3.org/1999/xlink" x="0px" y="0px"
	 viewBox="0 0 256.9 293.9" style="enable-background:new 0 0 256.9 293.9;" xml:space="preserve">

<style type="text/css">
	.shirt-colour{fill-rule:evenodd;clip-rule:evenodd;fill:#FFFFFF;}
	.shirt-outlines{fill:#C7C6C6;}
  .shirt-shadow{fill:#C7C6C6;fill-opacity:0.502;}
</style>

<path id="shirt" class="shirt-colour" d="M227.1,33.6c-5-8.8-24.8-17.1-24.8-17.1l-34.7-16c0,0-9.3,6.9-42,7.2C93,7.4,89.2,0.6,89.2,0.6
	l-34.7,16c0,0-19.8,8.3-24.8,17.1c-5,8.8-29.2,54.5-29.2,54.5l35.2,23.1l8.8-9.9c0,0,13.5,53.9,13.5,65.5s-6.9,109.6-6.9,109.6
	s7.7,17.1,77.1,17.1h0.3c69.4,0,77.1-17.1,77.1-17.1s-6.9-98-6.9-109.6s13.5-65.5,13.5-65.5l8.8,9.9l35.2-23.1
	C256.3,88.1,232.1,42.4,227.1,33.6L227.1,33.6z"/>

<g>
	<path class="shirt-shadow" d="M128.3,34.3c-35.2,0-39.9-33.9-39.9-33.9s6.9,7.8,36.9,7.8c27.1,0,40.3-6.4,42.6-7.6l0.3,0.1
		C167.6,4.4,161.4,34.3,128.3,34.3z"/>
	<path class="shirt-outlines" d="M227.1,33.6l0.4-0.2c-2.6-4.6-8.8-8.8-14.4-12c-5.6-3.2-10.6-5.3-10.6-5.3l-0.2,0.4l0.2-0.4L167.6,0.1
		l-0.2,0.2l0,0c-0.5,0.3-10.1,6.8-41.7,7.1l0,0.4l0-0.4c-16.3-0.1-25.4-1.9-30.3-3.7c-2.5-0.9-3.9-1.7-4.8-2.3
		c-0.4-0.3-0.7-0.6-0.8-0.7l-0.1-0.2l0,0l0,0l0,0l0,0l0,0l0,0L89.4,0L54.3,16.1l0.2,0.4l-0.2-0.4c0,0-5,2.1-10.6,5.3
		c-5.6,3.2-11.8,7.4-14.4,12c-5,8.8-29.2,54.5-29.2,54.5L0,88.3l35.9,23.5l9.1-10.2l-0.3-0.3l-0.4,0.1c0,0,0.2,0.8,0.6,2.3
		c1.3,5.2,4.5,18.5,7.4,31.7c1.5,6.6,2.8,13.2,3.8,18.8c1,5.6,1.6,10.1,1.6,12.6c0,5.7-1.7,33.1-3.4,59.1c-0.9,13-1.7,25.6-2.4,35
		c-0.3,4.7-0.6,8.6-0.8,11.2c-0.2,2.7-0.3,4.2-0.3,4.2l0,0.1l0,0.1c0.1,0.1,2.1,4.5,12.8,8.8c10.7,4.3,30,8.6,64.7,8.6h0.3
		c34.7,0,54-4.3,64.7-8.6c10.7-4.3,12.7-8.6,12.8-8.8l0-0.1l0-0.1c0,0-0.1-1.5-0.3-4.2c-0.7-9.5-2.3-33.2-3.8-56
		c-1.5-22.7-2.8-44.3-2.8-49.3c0-2.8,0.8-8.4,2.1-15c1.9-10,4.7-22.6,7.1-32.7c1.2-5,2.3-9.5,3-12.6c0.8-3.1,1.2-5,1.2-5l-0.4-0.1
		l-0.3,0.3l9.1,10.2l35.9-23.5l-0.2-0.3c0,0-24.2-45.7-29.2-54.5L227.1,33.6l-0.4,0.2c2.5,4.4,9.8,18,16.4,30.6
		c3.3,6.3,6.5,12.2,8.9,16.7c1.2,2.2,2.1,4,2.8,5.3c0.7,1.3,1,2,1,2l0.4-0.2l-0.2-0.4l-34.9,22.9l-9.1-10.2l-0.2,0.8
		c0,0-3.4,13.5-6.7,28.4c-1.7,7.5-3.4,15.3-4.6,22c-1.3,6.7-2.1,12.2-2.1,15.2c0,5.8,1.7,33.2,3.4,59.1c1.7,25.9,3.4,50.4,3.4,50.4
		l0.4,0l-0.4-0.2h0c-0.1,0.2-2.2,4.3-12.8,8.5c-10.6,4.2-29.8,8.3-63.9,8.3h-0.3c-34.6,0-53.9-4.3-64.4-8.5
		c-5.3-2.1-8.3-4.2-10.1-5.8c-0.9-0.8-1.4-1.4-1.8-1.9c-0.2-0.2-0.3-0.4-0.3-0.5l-0.1-0.1l0,0h0l-0.4,0.2l0.4,0
		c0,0,1.7-24.5,3.4-50.4c1.7-25.9,3.4-53.3,3.4-59.1c0-3-0.9-8.5-2.1-15.2C52.6,131.6,45,101.2,45,101.2l-0.2-0.8l-9.1,10.2
		L0.8,87.7l-0.2,0.4L1,88.3c0,0,0.4-0.7,1.1-2c4.7-8.9,23.8-44.8,28.1-52.5c2.4-4.2,8.5-8.5,14.1-11.7c2.8-1.6,5.4-2.9,7.3-3.8
		c1-0.5,1.8-0.8,2.3-1.1c0.5-0.2,0.9-0.4,0.9-0.4h0L89.4,1l-0.2-0.4l-0.4,0.2c0.1,0.1,1.1,1.9,6.2,3.7c5.1,1.8,14.3,3.6,30.6,3.7h0
		h0c32.7-0.3,42.1-7.2,42.2-7.2l-0.3-0.3L167.5,1l34.7,16h0c0,0,0.3,0.1,0.9,0.4c1.9,0.8,6.8,3.1,11.7,6.1c4.9,3,9.9,6.7,12,10.4
		L227.1,33.6L227.1,33.6z"/>
	<path class="shirt-outlines" d="M181.9,52.6l-12.8,5.2c-1.4,0.6-3.5,1.2-4.4-0.3c-0.5-0.8-0.2-2,0.6-3.2c0.5-0.7,1.1-1.4,1.7-2
		c-0.3,0.5-1.3,2.4-0.1,3.3c0.5,0.4,1.3,0.4,2.4,0.1L181.9,52.6z"/>
	<path class="shirt-outlines" d="M50.7,269.7c0,0,0.2,0.6,0.9,1.4l0.6-0.5c-0.3-0.4-0.5-0.7-0.6-0.9c-0.1-0.1-0.1-0.2-0.1-0.2l0,0l0,0l-0.1,0
		l0.1,0l0,0l-0.1,0l0.1,0L50.7,269.7z M52.7,272.3c0.3,0.3,0.7,0.7,1.2,1.1l0.5-0.6c-0.4-0.4-0.8-0.7-1.2-1L52.7,272.3L52.7,272.3z
		 M55.2,274.3c0.4,0.3,0.9,0.6,1.3,0.9l0.4-0.7c-0.5-0.3-0.9-0.6-1.3-0.9L55.2,274.3z M57.9,276c0.4,0.3,0.9,0.5,1.4,0.8l0.4-0.7
		c-0.5-0.3-0.9-0.5-1.4-0.7L57.9,276L57.9,276z M60.8,277.5c0.5,0.2,1,0.4,1.5,0.6l0.3-0.8c-0.5-0.2-1-0.4-1.4-0.6L60.8,277.5
		L60.8,277.5z M63.7,278.8c0.5,0.2,1,0.4,1.5,0.6l0.3-0.8c-0.5-0.2-1-0.4-1.5-0.6L63.7,278.8L63.7,278.8z M66.7,279.8
		c0.5,0.2,1,0.3,1.5,0.5l0.2-0.8c-0.5-0.2-1-0.3-1.5-0.5L66.7,279.8L66.7,279.8z M69.7,280.8c0.5,0.1,1,0.3,1.5,0.4l0.2-0.8
		c-0.5-0.1-1-0.3-1.5-0.4L69.7,280.8L69.7,280.8z M72.8,281.7c0.5,0.1,1,0.3,1.5,0.4l0.2-0.8c-0.5-0.1-1-0.3-1.5-0.4L72.8,281.7z
		 M75.9,282.4c0.5,0.1,1,0.2,1.6,0.3l0.2-0.8c-0.5-0.1-1-0.2-1.5-0.3L75.9,282.4L75.9,282.4z M79,283.1c0.5,0.1,1,0.2,1.6,0.3
		l0.2-0.8c-0.5-0.1-1-0.2-1.6-0.3L79,283.1L79,283.1z M82.1,283.7c0.5,0.1,1,0.2,1.6,0.3l0.1-0.8c-0.5-0.1-1-0.2-1.6-0.3L82.1,283.7
		z M85.3,284.2c0.5,0.1,1,0.2,1.6,0.2l0.1-0.8c-0.5-0.1-1-0.1-1.6-0.2L85.3,284.2z M88.4,284.7c0.5,0.1,1,0.1,1.6,0.2l0.1-0.8
		c-0.5-0.1-1.1-0.1-1.6-0.2L88.4,284.7z M91.5,285.1c0.5,0.1,1,0.1,1.6,0.2l0.1-0.8c-0.5-0.1-1.1-0.1-1.6-0.2L91.5,285.1L91.5,285.1
		z M94.7,285.4c0.5,0.1,1,0.1,1.6,0.2l0.1-0.8c-0.5,0-1.1-0.1-1.6-0.2L94.7,285.4L94.7,285.4z M97.9,285.7c0.5,0.1,1,0.1,1.6,0.1
		l0.1-0.8c-0.5,0-1.1-0.1-1.6-0.1L97.9,285.7L97.9,285.7z M101,286c0.5,0,1.1,0.1,1.6,0.1l0.1-0.8c-0.5,0-1.1-0.1-1.6-0.1L101,286z
		 M104.2,286.3c0.5,0,1.1,0.1,1.6,0.1l0.1-0.8c-0.5,0-1.1-0.1-1.6-0.1L104.2,286.3L104.2,286.3z M107.4,286.5c0.5,0,1.1,0.1,1.6,0.1
		l0-0.8c-0.5,0-1.1-0.1-1.6-0.1L107.4,286.5z M110.5,286.6c0.5,0,1.1,0,1.6,0.1l0-0.8c-0.5,0-1.1,0-1.6-0.1L110.5,286.6L110.5,286.6
		z M113.7,286.8c0.5,0,1.1,0,1.6,0l0-0.8c-0.5,0-1.1,0-1.6-0.1L113.7,286.8L113.7,286.8z M116.9,286.8c0.5,0,1.1,0,1.6,0l0-0.8
		c-0.5,0-1.1,0-1.6,0L116.9,286.8L116.9,286.8z M120.1,286.9c0.5,0,1.1,0,1.6,0l0-0.8c-0.5,0-1.1,0-1.6,0L120.1,286.9L120.1,286.9z
		 M123.2,287c0.5,0,1.1,0,1.6,0l0-0.8c-0.5,0-1.1,0-1.6,0L123.2,287L123.2,287z M126.4,287c0.4,0,0.9,0,1.4,0h0.2l0-0.8h-0.2
		c-0.5,0-0.9,0-1.3,0L126.4,287z M129.6,287c0.5,0,1.1,0,1.6,0l0-0.8c-0.5,0-1.1,0-1.6,0L129.6,287L129.6,287z M132.8,287
		c0.5,0,1.1,0,1.6,0l0-0.8c-0.5,0-1.1,0-1.6,0L132.8,287z M135.9,286.9c0.5,0,1.1,0,1.6,0l0-0.8c-0.5,0-1.1,0-1.6,0L135.9,286.9z
		 M139.1,286.8c0.5,0,1.1,0,1.6,0l0-0.8c-0.5,0-1.1,0-1.6,0L139.1,286.8L139.1,286.8z M142.3,286.7c0.5,0,1.1,0,1.6-0.1l0-0.8
		c-0.5,0-1,0-1.6,0.1L142.3,286.7L142.3,286.7z M145.5,286.6c0.5,0,1.1,0,1.6-0.1l0-0.8c-0.5,0-1.1,0.1-1.6,0.1L145.5,286.6z
		 M148.6,286.4c0.5,0,1.1-0.1,1.6-0.1l-0.1-0.8c-0.5,0-1,0.1-1.6,0.1L148.6,286.4L148.6,286.4z M151.8,286.2c0.5,0,1.1-0.1,1.6-0.1
		l-0.1-0.8c-0.5,0-1,0.1-1.6,0.1L151.8,286.2z M155,286c0.5,0,1.1-0.1,1.6-0.1l-0.1-0.8c-0.5,0-1,0.1-1.6,0.1L155,286z M158.1,285.7
		c0.5,0,1.1-0.1,1.6-0.1l-0.1-0.8c-0.5,0-1,0.1-1.6,0.2L158.1,285.7L158.1,285.7z M161.3,285.4c0.5-0.1,1.1-0.1,1.6-0.2l-0.1-0.8
		c-0.5,0.1-1,0.1-1.6,0.2L161.3,285.4L161.3,285.4z M164.4,285c0.5-0.1,1.1-0.1,1.6-0.2l-0.1-0.8c-0.5,0.1-1,0.1-1.6,0.2L164.4,285z
		 M167.6,284.6c0.5-0.1,1.1-0.1,1.6-0.2l-0.1-0.8c-0.5,0.1-1,0.1-1.6,0.2L167.6,284.6L167.6,284.6z M170.7,284.1
		c0.5-0.1,1.1-0.2,1.6-0.3l-0.1-0.8c-0.5,0.1-1,0.2-1.6,0.3L170.7,284.1L170.7,284.1z M173.9,283.6c0.5-0.1,1.1-0.2,1.6-0.3
		l-0.2-0.8c-0.5,0.1-1,0.2-1.6,0.3L173.9,283.6z M177,283c0.5-0.1,1-0.2,1.6-0.3l-0.2-0.8c-0.5,0.1-1,0.2-1.5,0.3L177,283z
		 M180.1,282.4c0.5-0.1,1-0.2,1.5-0.4l-0.2-0.8c-0.5,0.1-1,0.2-1.5,0.4L180.1,282.4L180.1,282.4z M183.2,281.6
		c0.5-0.1,1-0.3,1.5-0.4l-0.2-0.8c-0.5,0.1-1,0.3-1.5,0.4L183.2,281.6L183.2,281.6z M186.3,280.8c0.5-0.2,1-0.3,1.5-0.5l-0.2-0.8
		c-0.5,0.2-1,0.3-1.5,0.5L186.3,280.8L186.3,280.8z M189.3,279.8c0.5-0.2,1-0.3,1.5-0.5l-0.3-0.8c-0.5,0.2-1,0.3-1.5,0.5
		L189.3,279.8L189.3,279.8z M192.3,278.8c0.5-0.2,1-0.4,1.5-0.6l-0.3-0.8c-0.5,0.2-1,0.4-1.5,0.6L192.3,278.8z M195.3,277.5
		c0.5-0.2,1-0.5,1.4-0.7l-0.4-0.7c-0.5,0.2-0.9,0.4-1.4,0.7L195.3,277.5z M198.1,276.1c0.5-0.3,1-0.5,1.4-0.8l-0.4-0.7
		c-0.4,0.3-0.9,0.5-1.4,0.8L198.1,276.1L198.1,276.1z M200.9,274.5c0.5-0.3,0.9-0.6,1.3-0.9l-0.5-0.7c-0.4,0.3-0.8,0.6-1.3,0.9
		L200.9,274.5L200.9,274.5z M203.5,272.6c0.5-0.4,0.9-0.8,1.2-1.1l-0.6-0.6c-0.3,0.3-0.7,0.7-1.1,1.1L203.5,272.6z M205.6,270.1
		c0.2-0.3,0.3-0.4,0.3-0.5l-0.8-0.3l0,0l0,0l0,0l0,0l0,0c0,0-0.1,0.1-0.2,0.3L205.6,270.1z"/>
	<path class="shirt-outlines" d="M50.7,267.6c0,0,0.2,0.6,0.9,1.4l0.6-0.5c-0.3-0.4-0.5-0.7-0.6-0.9c-0.1-0.1-0.1-0.2-0.1-0.2l0,0l0,0l-0.1,0
		l0.1,0l0,0l-0.1,0l0.1,0L50.7,267.6z M52.7,270.2c0.3,0.3,0.7,0.7,1.2,1.1l0.5-0.6c-0.4-0.4-0.8-0.7-1.2-1L52.7,270.2z M55.2,272.2
		c0.4,0.3,0.9,0.6,1.3,0.9l0.4-0.7c-0.5-0.3-0.9-0.6-1.3-0.9L55.2,272.2L55.2,272.2z M57.9,274c0.4,0.2,0.9,0.5,1.4,0.7l0.4-0.7
		c-0.5-0.3-0.9-0.5-1.4-0.7L57.9,274z M60.8,275.4c0.5,0.2,1,0.4,1.5,0.6l0.3-0.8c-0.5-0.2-1-0.4-1.4-0.6L60.8,275.4L60.8,275.4z
		 M63.7,276.6c0.5,0.2,1,0.4,1.5,0.6l0.3-0.8c-0.5-0.2-1-0.4-1.5-0.6L63.7,276.6z M66.7,277.7c0.5,0.2,1,0.3,1.5,0.5l0.3-0.8
		c-0.5-0.2-1-0.3-1.5-0.5L66.7,277.7L66.7,277.7z M69.7,278.7c0.5,0.1,1,0.3,1.5,0.4l0.2-0.8c-0.5-0.1-1-0.3-1.5-0.4L69.7,278.7
		L69.7,278.7z M72.8,279.6c0.5,0.1,1,0.3,1.5,0.4l0.2-0.8c-0.5-0.1-1-0.3-1.5-0.4L72.8,279.6z M75.9,280.3c0.5,0.1,1,0.2,1.6,0.3
		l0.2-0.8c-0.5-0.1-1-0.2-1.5-0.3L75.9,280.3L75.9,280.3z M79,281c0.5,0.1,1,0.2,1.6,0.3l0.2-0.8c-0.5-0.1-1-0.2-1.6-0.3L79,281
		L79,281z M82.1,281.6c0.5,0.1,1,0.2,1.6,0.3l0.1-0.8c-0.5-0.1-1-0.2-1.6-0.3L82.1,281.6z M85.3,282.1c0.5,0.1,1,0.2,1.6,0.2
		l0.1-0.8c-0.5-0.1-1-0.2-1.6-0.2L85.3,282.1z M88.4,282.6c0.5,0.1,1,0.1,1.6,0.2l0.1-0.8c-0.5-0.1-1.1-0.1-1.6-0.2L88.4,282.6z
		 M91.5,283c0.5,0.1,1,0.1,1.6,0.2l0.1-0.8c-0.5-0.1-1.1-0.1-1.6-0.2L91.5,283L91.5,283z M94.7,283.3c0.5,0.1,1,0.1,1.6,0.2l0.1-0.8
		c-0.5,0-1.1-0.1-1.6-0.2L94.7,283.3L94.7,283.3z M97.9,283.6c0.5,0.1,1,0.1,1.6,0.1l0.1-0.8c-0.5,0-1.1-0.1-1.6-0.2L97.9,283.6
		L97.9,283.6z M101,283.9c0.5,0,1.1,0.1,1.6,0.1l0.1-0.8c-0.5,0-1.1-0.1-1.6-0.1L101,283.9z M104.2,284.1c0.5,0,1.1,0.1,1.6,0.1
		l0.1-0.8c-0.5,0-1.1-0.1-1.6-0.1L104.2,284.1L104.2,284.1z M107.4,284.3c0.5,0,1.1,0.1,1.6,0.1l0-0.8c-0.5,0-1.1-0.1-1.6-0.1
		L107.4,284.3L107.4,284.3z M110.5,284.5c0.5,0,1.1,0,1.6,0.1l0-0.8c-0.5,0-1.1,0-1.6-0.1L110.5,284.5z M113.7,284.6
		c0.5,0,1.1,0,1.6,0l0-0.8c-0.5,0-1.1,0-1.6-0.1L113.7,284.6z M116.9,284.7c0.5,0,1.1,0,1.6,0l0-0.8c-0.5,0-1.1,0-1.6,0L116.9,284.7
		L116.9,284.7z M120.1,284.8c0.5,0,1.1,0,1.6,0l0-0.8c-0.5,0-1.1,0-1.6,0L120.1,284.8z M123.2,284.9c0.5,0,1.1,0,1.6,0l0-0.8
		c-0.5,0-1.1,0-1.6,0L123.2,284.9L123.2,284.9z M126.4,284.9c0.4,0,0.9,0,1.4,0h0.2v-0.8h-0.2c-0.5,0-0.9,0-1.3,0L126.4,284.9z
		 M129.6,284.9c0.5,0,1.1,0,1.6,0l0-0.8c-0.5,0-1.1,0-1.6,0L129.6,284.9z M132.8,284.9c0.5,0,1.1,0,1.6,0l0-0.8c-0.5,0-1.1,0-1.6,0
		L132.8,284.9L132.8,284.9z M135.9,284.8c0.5,0,1.1,0,1.6,0l0-0.8c-0.5,0-1.1,0-1.6,0L135.9,284.8z M139.1,284.7c0.5,0,1.1,0,1.6,0
		l0-0.8c-0.5,0-1.1,0-1.6,0L139.1,284.7L139.1,284.7z M142.3,284.6c0.5,0,1.1,0,1.6-0.1l0-0.8c-0.5,0-1.1,0-1.6,0.1L142.3,284.6z
		 M145.5,284.5c0.5,0,1.1,0,1.6-0.1l0-0.8c-0.5,0-1.1,0.1-1.6,0.1L145.5,284.5L145.5,284.5z M148.6,284.3c0.5,0,1.1-0.1,1.6-0.1
		l-0.1-0.8c-0.5,0-1,0.1-1.6,0.1L148.6,284.3L148.6,284.3z M151.8,284.1c0.5,0,1.1-0.1,1.6-0.1l-0.1-0.8c-0.5,0-1,0.1-1.6,0.1
		L151.8,284.1z M155,283.9c0.5,0,1.1-0.1,1.6-0.1l-0.1-0.8c-0.5,0-1,0.1-1.6,0.1L155,283.9L155,283.9z M158.1,283.6
		c0.5,0,1.1-0.1,1.6-0.2l-0.1-0.8c-0.5,0.1-1,0.1-1.6,0.2L158.1,283.6L158.1,283.6z M161.3,283.3c0.5-0.1,1.1-0.1,1.6-0.2l-0.1-0.8
		c-0.5,0.1-1,0.1-1.6,0.2L161.3,283.3z M164.4,282.9c0.5-0.1,1.1-0.1,1.6-0.2l-0.1-0.8c-0.5,0.1-1,0.1-1.6,0.2L164.4,282.9
		L164.4,282.9z M167.6,282.5c0.5-0.1,1.1-0.1,1.6-0.2l-0.1-0.8c-0.5,0.1-1,0.1-1.6,0.2L167.6,282.5L167.6,282.5z M170.7,282
		c0.5-0.1,1.1-0.2,1.6-0.3l-0.1-0.8c-0.5,0.1-1,0.2-1.6,0.3L170.7,282L170.7,282z M173.9,281.5c0.5-0.1,1.1-0.2,1.6-0.3l-0.2-0.8
		c-0.5,0.1-1,0.2-1.6,0.3L173.9,281.5L173.9,281.5z M177,280.9c0.5-0.1,1-0.2,1.6-0.3l-0.2-0.8c-0.5,0.1-1,0.2-1.5,0.3L177,280.9z
		 M180.1,280.3c0.5-0.1,1-0.2,1.5-0.4l-0.2-0.8c-0.5,0.1-1,0.2-1.5,0.4L180.1,280.3z M183.2,279.5c0.5-0.1,1-0.3,1.5-0.4l-0.2-0.8
		c-0.5,0.1-1,0.3-1.5,0.4L183.2,279.5z M186.3,278.7c0.5-0.1,1-0.3,1.5-0.5l-0.2-0.8c-0.5,0.2-1,0.3-1.5,0.5L186.3,278.7
		L186.3,278.7z M189.3,277.7c0.5-0.2,1-0.3,1.5-0.5l-0.3-0.8c-0.5,0.2-1,0.3-1.5,0.5L189.3,277.7z M192.3,276.7
		c0.5-0.2,1-0.4,1.5-0.6l-0.3-0.8c-0.5,0.2-1,0.4-1.5,0.6L192.3,276.7L192.3,276.7z M195.3,275.4c0.5-0.2,1-0.5,1.4-0.7l-0.4-0.7
		c-0.5,0.2-0.9,0.4-1.4,0.7L195.3,275.4L195.3,275.4z M198.1,274c0.5-0.3,1-0.5,1.4-0.8l-0.4-0.7c-0.4,0.3-0.9,0.5-1.4,0.8
		L198.1,274z M200.9,272.4c0.5-0.3,0.9-0.6,1.3-0.9l-0.5-0.7c-0.4,0.3-0.8,0.6-1.3,0.9L200.9,272.4z M203.5,270.5
		c0.5-0.4,0.9-0.8,1.2-1.1l-0.6-0.6c-0.3,0.3-0.7,0.7-1.1,1.1L203.5,270.5z M205.6,268c0.2-0.3,0.3-0.4,0.3-0.5l-0.8-0.3l0,0l0,0
		l0,0l0,0l0,0c0,0-0.1,0.1-0.2,0.3L205.6,268L205.6,268z"/>
	<path class="shirt-outlines" d="M82.4,3.9c0,0,2.5,9.3,9.3,18.7c6.8,9.3,18.1,18.8,35.7,18.8h0.1c18,0,29.4-8.9,36.3-18
		c3.5-4.6,5.9-9.2,7.5-12.8c0.8-1.8,1.4-3.4,1.8-4.5c0.2-0.6,0.4-1.1,0.5-1.5c0.1-0.4,0.2-0.6,0.3-0.7l-1-0.5
		c-0.1,0.2-0.2,0.5-0.3,0.8c-1,2.8-4.1,11.8-11,20.1c-6.9,8.3-17.6,15.9-34.1,15.9h-0.1h0c-17.1,0-28-9.1-34.8-18.3
		c-3.4-4.6-5.6-9.2-7.1-12.6c-0.7-1.7-1.2-3.1-1.6-4.1c-0.2-0.5-0.3-0.9-0.4-1.2c-0.1-0.3-0.1-0.4-0.1-0.4L82.4,3.9L82.4,3.9z"/>
	<path class="shirt-outlines" d="M201.5,15.4c0,0-2.3,19.1-2.3,39.3c0,10.4,0.6,21,2.4,29.5c0.9,4.2,2.1,8,3.8,10.8c1.6,2.9,3.7,4.9,6.4,5.8
		l0.4-1.1c-2.3-0.7-4.1-2.5-5.7-5.2c-2.3-4.1-3.9-10.2-4.8-17.1c-0.9-7-1.3-14.9-1.3-22.6c0-10,0.6-19.8,1.1-27.1
		c0.3-3.6,0.6-6.7,0.8-8.8c0.2-2.1,0.4-3.3,0.4-3.3L201.5,15.4z"/>
	<path class="shirt-outlines" d="M217.4,107.7l1.3-0.9l-0.5-0.7L217,107L217.4,107.7z M220.1,105.9l1.3-0.9l-0.5-0.7l-1.3,0.9L220.1,105.9
		L220.1,105.9z M222.7,104.1l1.3-0.9l-0.5-0.7l-1.3,0.9L222.7,104.1z M225.3,102.3l1.3-0.9l-0.5-0.7l-1.3,0.9L225.3,102.3
		L225.3,102.3z M227.9,100.6l1.3-0.9l-0.5-0.7l-1.3,0.9L227.9,100.6L227.9,100.6z M230.5,98.8l1.3-0.9l-0.5-0.7l-1.3,0.9L230.5,98.8
		z M233.2,97l1.3-0.9l-0.5-0.7l-1.3,0.9L233.2,97z M235.8,95.2l1.3-0.9l-0.5-0.7l-1.3,0.9L235.8,95.2L235.8,95.2z M238.4,93.4
		l1.3-0.9l-0.5-0.7l-1.3,0.9L238.4,93.4L238.4,93.4z M241,91.6l1.3-0.9l-0.5-0.7l-1.3,0.9L241,91.6z M243.6,89.8l1.3-0.9l-0.5-0.7
		l-1.3,0.9L243.6,89.8z M246.3,88.1l1.3-0.9l-0.5-0.7l-1.3,0.9L246.3,88.1z M248.9,86.3l1.3-0.9l-0.5-0.7l-1.3,0.9L248.9,86.3z
		 M251.5,84.5l1.3-0.9l-0.5-0.7l-1.3,0.9L251.5,84.5L251.5,84.5z"/>
	<path class="shirt-outlines" d="M215.8,106.1l1.3-0.9l-0.5-0.7l-1.3,0.9L215.8,106.1L215.8,106.1z M218.4,104.3l1.3-0.9l-0.5-0.7l-1.3,0.9
		L218.4,104.3z M221,102.5l1.3-0.9l-0.5-0.7l-1.3,0.9L221,102.5L221,102.5z M223.6,100.7l1.3-0.9l-0.5-0.7l-1.3,0.9L223.6,100.7z
		 M226.3,98.9l1.3-0.9l-0.5-0.7l-1.3,0.9L226.3,98.9z M228.9,97.1l1.3-0.9l-0.5-0.7l-1.3,0.9L228.9,97.1z M231.5,95.3l1.3-0.9
		l-0.5-0.7l-1.3,0.9L231.5,95.3L231.5,95.3z M234.1,93.6l1.3-0.9L235,92l-1.3,0.9L234.1,93.6z M236.7,91.8l1.3-0.9l-0.5-0.7
		l-1.3,0.9L236.7,91.8L236.7,91.8z M239.4,90l1.3-0.9l-0.5-0.7l-1.3,0.9L239.4,90L239.4,90z M242,88.2l1.3-0.9l-0.5-0.7l-1.3,0.9
		L242,88.2z M244.6,86.4l1.3-0.9l-0.5-0.7l-1.3,0.9L244.6,86.4L244.6,86.4z M247.2,84.6l1.3-0.9l-0.5-0.7l-1.3,0.9L247.2,84.6z
		 M249.9,82.8l1.3-0.9l-0.5-0.7l-1.3,0.9L249.9,82.8L249.9,82.8z"/>
	<path class="shirt-outlines" d="M53.7,15.5c0,0,0.1,1.2,0.4,3.3c0.6,6.3,1.9,20.8,1.9,35.9c0,10.3-0.6,20.9-2.4,29.3
		c-0.9,4.2-2.1,7.8-3.7,10.5c-1.6,2.7-3.4,4.5-5.7,5.2l0.4,1.1c2.6-0.8,4.7-2.9,6.4-5.8c2.5-4.3,4-10.5,4.9-17.6
		c0.9-7.1,1.3-15,1.3-22.8c0-20.2-2.3-39.3-2.3-39.3L53.7,15.5L53.7,15.5z"/>
	<path class="shirt-outlines" d="M38.5,107l-1.3-0.9l-0.5,0.7l1.3,0.9L38.5,107z M35.9,105.2l-1.3-0.9l-0.5,0.7l1.3,0.9L35.9,105.2z
		 M33.3,103.5l-1.3-0.9l-0.5,0.7l1.3,0.9L33.3,103.5z M30.6,101.7l-1.3-0.9l-0.5,0.7l1.3,0.9L30.6,101.7L30.6,101.7z M28,99.9
		L26.7,99l-0.5,0.7l1.3,0.9L28,99.9z M25.4,98.1l-1.3-0.9l-0.5,0.7l1.3,0.9L25.4,98.1z M22.8,96.3l-1.3-0.9L21,96.1l1.3,0.9
		L22.8,96.3z M20.2,94.5l-1.3-0.9l-0.5,0.7l1.3,0.9L20.2,94.5z M17.5,92.7l-1.3-0.9l-0.5,0.7l1.3,0.9L17.5,92.7L17.5,92.7z
		 M14.9,90.9l-1.3-0.9l-0.5,0.7l1.3,0.9L14.9,90.9L14.9,90.9z M12.3,89.2L11,88.3l-0.5,0.7l1.3,0.9L12.3,89.2z M9.7,87.4l-1.3-0.9
		l-0.5,0.7l1.3,0.9L9.7,87.4z M7.1,85.6l-1.3-0.9l-0.5,0.7l1.3,0.9L7.1,85.6z M4.4,83.8l-1.3-0.9l-0.5,0.7L4,84.5L4.4,83.8z"/>
	<path class="shirt-outlines" d="M40.2,105.4l-1.3-0.9l-0.5,0.7l1.3,0.9L40.2,105.4z M37.5,103.6l-1.3-0.9l-0.5,0.7l1.3,0.9L37.5,103.6z
		 M34.9,101.8l-1.3-0.9l-0.5,0.7l1.3,0.9L34.9,101.8z M32.3,100L31,99.1l-0.5,0.7l1.3,0.9L32.3,100z M29.7,98.2l-1.3-0.9L27.9,98
		l1.3,0.9L29.7,98.2L29.7,98.2z M27.1,96.4l-1.3-0.9l-0.5,0.7l1.3,0.9L27.1,96.4z M24.4,94.7l-1.3-0.9l-0.5,0.7l1.3,0.9L24.4,94.7z
		 M21.8,92.9L20.5,92L20,92.7l1.3,0.9L21.8,92.9L21.8,92.9z M19.2,91.1l-1.3-0.9l-0.5,0.7l1.3,0.9L19.2,91.1z M16.6,89.3l-1.3-0.9
		l-0.5,0.7l1.3,0.9L16.6,89.3z M14,87.5l-1.3-0.9l-0.5,0.7l1.3,0.9L14,87.5z M11.3,85.7L10,84.8l-0.5,0.7l1.3,0.9L11.3,85.7
		L11.3,85.7z M8.7,83.9L7.4,83l-0.5,0.7l1.3,0.9L8.7,83.9z M6.1,82.1l-1.3-0.9l-0.5,0.7l1.3,0.9L6.1,82.1z"/>
	<polygon class="shirt-outlines" points="52,133.6 66.2,133.6 66.2,132.5 52,132.5 	"/>
	<path class="shirt-outlines" d="M67.8,285.4V133l0,0c0,0-1-11.2-3-23.3c-1-6.1-2.2-12.3-3.7-17.6c-0.7-2.6-1.5-5-2.4-6.9
		c-0.9-1.9-1.8-3.5-2.8-4.5l-0.8,0.9c0.8,0.8,1.7,2.2,2.5,4.1c2.9,6.5,5.2,18.4,6.7,28.7c0.8,5.1,1.3,9.8,1.7,13.2
		c0.2,1.7,0.3,3.1,0.4,4.1c0.1,1,0.1,1.5,0.1,1.5l0.6-0.1h-0.6v152.4H67.8z"/>
	<polygon class="shirt-outlines" points="189.9,133.6 204.1,133.6 204.1,132.5 189.9,132.5 	"/>
	<path class="shirt-outlines" d="M189.5,285.4V133.1h-0.6l0.6,0.1c0,0,0.1-0.7,0.2-1.9c0.5-4.3,1.7-15.2,3.6-25.9c1-5.3,2.1-10.5,3.4-14.8
		c1.3-4.3,2.8-7.6,4.3-9l-0.8-0.9c-1,1-1.9,2.5-2.8,4.5c-3,6.8-5.2,18.7-6.8,29c-1.5,10.3-2.3,18.8-2.3,18.8l0,0v152.4H189.5z"/>
</g>
</svg>
